<svg width="512" height="512" viewBox="0 0 512 512" fill="none" xmlns="http://www.w3.org/2000/svg">
  <rect width="512" height="512" rx="128" fill="#0f172a"/>
  <path d="M144 256C144 194.112 194.112 144 256 144C317.888 144 368 194.112 368 256C368 317.888 317.888 368 256 368C194.112 368 144 317.888 144 256ZM256 184C216.112 184 184 216.112 184 256C184 295.888 216.112 328 256 328C295.888 328 328 295.888 328 256C328 216.112 295.888 184 256 184Z" fill="white"/>
  <path d="M256 208C229.49 208 208 229.49 208 256C208 282.51 229.49 304 256 304C282.51 304 304 282.51 304 256C304 229.49 282.51 208 256 208Z" fill="#38bdf8"/>
</svg> 